<?xml version="1.0" encoding="utf-8"?>
<svg version="1.0" width="1024.000000pt" height="1024.000000pt" viewBox="0 0 1024.000000 1024.000000" preserveAspectRatio="xMidYMid meet" xmlns="http://www.w3.org/2000/svg">
  <g transform="translate(0.000000,1024.000000) scale(0.100000,-0.100000)" fill="#000000" stroke="none">
    <path style="stroke: rgb(0, 0, 0); fill: rgb(255, 254, 211);" d="M 5113.547 4842.926 L 4214.96 3950.027 L 5085.111 3711.162 C 5085.111 3711.162 5733.458 3398.363 5722.083 3398.363 C 5710.708 3398.363 6250.998 3477.984 6250.998 3477.984 L 6188.438 3836.282 L 5113.547 4842.926 Z"/>
    <path style="stroke: rgb(0, 0, 0); fill: rgb(255, 245, 216);" d="M 4505.401 7759.8 C 4505.401 7759.8 4164.177 7447.823 4164.177 7442.948 C 4164.177 7438.073 4066.684 6994.482 4066.684 6994.482 C 4066.684 6994.482 4056.935 6731.252 4056.935 6726.377 C 4056.935 6721.502 5153.728 5678.33 5153.728 5678.33 L 6172.527 6653.257 L 6172.527 7208.966 L 5958.043 7628.185 L 5621.693 7842.669 C 5621.693 7842.669 5226.848 7969.409 5221.973 7969.409 C 5217.098 7969.409 4754.008 7940.161 4754.008 7935.287 C 4754.008 7930.413 4524.9 7774.424 4505.401 7759.8 Z"/>
    <path style="stroke: rgb(0, 0, 0); fill: rgb(255, 224, 107);" d="M 4073.408 6498.34 L 4096.247 5961.627 C 4096.247 5961.627 4421.701 5487.721 4427.41 5487.721 C 4433.119 5487.721 4952.703 5008.106 4952.703 5008.106 C 4952.703 5008.106 5066.898 4871.073 5072.607 4871.073 C 5078.316 4871.073 5363.802 5013.816 5363.802 5013.816 L 6020.419 5676.142 L 6186 5898.82 L 6220.259 6401.275 L 6208.839 6652.502 C 6208.839 6652.502 5980.451 6458.372 5963.322 6452.662 C 5946.193 6446.952 5723.514 6155.757 5712.095 6150.048 C 5700.676 6144.339 5426.609 5921.659 5426.609 5915.95 C 5426.609 5910.241 5249.608 5750.368 5249.608 5744.658 C 5249.608 5738.948 5106.866 5624.754 5106.866 5624.754 L 4969.833 5796.046 C 4969.833 5796.046 4159.054 6555.437 4159.054 6561.147 C 4159.054 6566.857 4050.57 6481.211 4073.408 6498.34 Z"/>
    <path style="stroke: rgb(0, 0, 0); fill: rgb(198, 249, 255);" d="M 4653.24 2276.353 C 4653.24 2276.353 4523.983 2764.656 4516.802 2764.656 C 4509.621 2764.656 4186.48 2965.722 4179.299 2965.722 C 4172.118 2965.722 4028.499 3310.407 4028.499 3310.407 L 4064.404 3655.091 C 4064.404 3655.091 4100.308 3870.519 4114.67 3870.519 C 4129.032 3870.519 4488.078 4208.022 4488.078 4208.022 L 5033.829 4775.315 L 4839.944 5112.819 C 4839.944 5112.819 4287.013 5644.207 4279.832 5644.207 C 4272.651 5644.207 4085.947 5988.892 4085.947 5988.892 L 4078.766 6663.899 L 4107.489 7224.011 C 4107.489 7224.011 4308.555 7611.781 4308.555 7618.962 C 4308.555 7626.143 4653.24 7877.475 4653.24 7877.475 L 4703.506 7999.551 L 4373.184 7884.656 C 4373.184 7884.656 4100.308 7748.219 4093.128 7748.219 C 4085.948 7748.219 3813.071 7554.334 3805.891 7554.334 C 3798.711 7554.334 3705.358 7331.725 3705.358 7338.906 C 3705.358 7346.087 3418.121 7137.84 3418.121 7137.84 C 3418.121 7137.84 3123.703 6864.965 3116.522 6864.965 C 3109.341 6864.965 2807.742 6498.738 2807.742 6498.738 L 2513.324 6060.701 L 2405.61 5586.76 L 2333.801 5220.533 L 2369.705 4523.983 L 2419.972 4050.042 L 2642.581 3633.548 L 3109.341 2987.265 L 3561.739 2664.123 L 4236.746 2369.705 C 4236.746 2369.705 4653.24 2254.811 4653.24 2276.353 Z"/>
    <path style="stroke: rgb(0, 0, 0); fill: rgb(163, 249, 210);" d="M 5234.895 4890.21 L 6197.139 5888.359 L 6204.32 7037.307 L 5996.073 7511.248 L 6139.691 7647.686 L 6484.376 7446.62 L 6771.613 7166.564 L 7044.488 6965.498 L 7611.781 6276.129 C 7611.781 6276.129 7949.285 5457.503 7949.285 5450.322 C 7949.285 5443.141 7970.827 4674.783 7970.827 4674.783 L 7705.133 3813.071 L 7303.001 3138.064 L 5876.843 2240.822 L 5742.928 2764.397 C 5742.928 2764.397 6254.586 3784.348 6254.586 3798.71 C 6254.586 3813.072 5852.454 4157.756 5852.454 4157.756 L 5256.438 4703.506 L 5234.895 4890.21 Z"/>
    <path style="stroke: rgb(0, 0, 0); fill: rgb(255, 224, 107);" d="M 4100.308 3726.9 L 4035.68 3281.683 L 4251.108 2822.104 L 4782.496 2728.752 L 5479.046 2700.028 C 5479.046 2700.028 5888.359 2771.837 5881.178 2771.837 C 5873.997 2771.837 6146.872 3037.532 6146.872 3037.532 L 6261.767 3389.397 L 6110.968 3525.834 C 6110.968 3525.834 5888.359 3446.844 5881.178 3446.844 C 5873.997 3446.844 5529.313 3454.025 5522.132 3446.844 C 5514.951 3439.663 5277.98 3518.654 5270.799 3518.654 C 5263.618 3518.654 5076.914 3690.996 5076.914 3698.177 C 5076.914 3705.358 4689.144 3820.252 4689.144 3820.252 L 4287.013 3827.433 L 4100.308 3726.9 Z"/>
    <path style="stroke: rgb(0, 0, 0); fill: rgb(255, 224, 107);" d="M 4340.19 2804.823 C 4340.19 2804.823 4292.522 2407.591 4467.304 2338.737 C 4642.086 2269.883 4970.465 2195.734 4970.465 2195.734 L 5415.365 2190.437 L 5760.185 2290.154 C 5758.703 2286.202 6012.821 2473.363 5839.009 2645.438 C 5665.197 2817.513 5404.772 2672.412 5404.772 2672.412 C 5404.772 2672.412 5049.911 2683.005 5044.615 2683.005 C 5039.319 2683.005 4567.936 2693.598 4567.936 2693.598 L 4340.19 2804.823 Z"/>
    <path d="M4905 8080 c-363 -73 -660 -299 -846 -644 -75 -141 -115 -282 -129 -458 -13 -162 -12 -804 0 -893 19 -133 72 -261 162 -391 44 -65 162 -185 706 -718 l133 -130 -178 -176 c-98 -96 -283 -278 -411 -404 -128 -126 -253 -257 -278 -291 -63 -90 -121 -220 -146 -327 -30 -132 -29 -330 1 -448 71 -281 262 -490 536 -587 l80 -28 595 0 595 0 85 28 c371 125 577 444 557 866 -8 177 -40 286 -125 431 -24 41 -63 98 -87 125 -55 64 -333 338 -594 586 -112 107 -206 199 -208 205 -3 9 339 354 640 645 150 144 203 211 263 331 88 176 88 171 92 698 3 396 1 480 -13 565 -22 130 -55 228 -116 344 l-50 94 41 -7 c23 -4 54 -13 69 -21 43 -21 99 -85 126 -140 l24 -50 5 -732 c4 -540 9 -739 18 -758 13 -28 74 -65 108 -65 36 0 88 27 107 56 17 26 18 70 23 682 l5 653 50 -38 c172 -130 327 -273 439 -403 361 -418 572 -897 627 -1417 15 -150 7 -565 -15 -698 -130 -801 -586 -1460 -1292 -1866 -509 -294 -1039 -409 -1620 -354 -270 26 -461 67 -675 146 -1061 390 -1749 1365 -1749 2480 0 208 13 344 51 534 104 513 350 957 746 1346 137 134 295 269 316 269 4 0 7 -290 7 -645 0 -713 -2 -686 63 -725 39 -24 75 -25 120 -4 73 35 69 -4 68 769 -2 792 -5 759 83 935 65 130 122 217 194 292 l54 57 -88 -24 c-142 -39 -247 -96 -329 -179 -39 -39 -76 -85 -83 -101 -10 -22 -38 -44 -108 -85 -119 -68 -277 -190 -418 -322 -498 -466 -809 -1061 -903 -1729 -25 -176 -25 -626 1 -789 97 -633 359 -1166 790 -1609 444 -455 1047 -764 1672 -855 251 -37 633 -37 879 -1 517 77 1024 302 1445 641 257 207 465 445 642 734 190 309 318 666 384 1067 25 154 31 600 9 778 -89 742 -470 1415 -1080 1906 -84 68 -320 229 -334 229 -5 0 -21 20 -35 44 -36 61 -143 156 -218 194 -101 51 -176 66 -297 59 l-104 -6 -47 42 c-163 146 -384 254 -601 292 -115 20 -320 18 -434 -5z m515 -268 c52 -17 132 -53 177 -79 89 -52 213 -150 213 -168 0 -12 -686 -695 -698 -695 -4 0 -42 36 -86 80 -85 86 -120 104 -181 90 -47 -11 -64 -26 -87 -77 -34 -76 -19 -104 151 -275 142 -143 148 -148 188 -148 60 0 84 12 134 67 115 126 725 733 734 730 5 -2 27 -37 48 -78 45 -90 73 -213 83 -368 l7 -113 -149 -146 c-82 -80 -237 -232 -344 -336 -108 -105 -257 -252 -333 -325 l-137 -135 -63 60 c-34 33 -116 112 -181 175 -66 63 -194 186 -285 275 -91 88 -228 221 -305 295 l-138 134 5 135 c6 148 30 263 77 367 88 195 266 377 465 476 165 81 242 98 450 93 148 -3 167 -5 255 -34z m-1055 -1586 c125 -130 682 -659 703 -667 36 -15 120 -12 144 5 37 26 219 201 633 606 l239 234 9 -39 c12 -54 1 -277 -18 -348 -35 -134 -57 -164 -333 -436 -141 -139 -335 -328 -430 -419 l-173 -165 -242 240 c-133 132 -326 323 -428 424 -173 171 -189 190 -228 269 -54 111 -71 194 -71 354 l0 130 88 -84 c48 -46 96 -93 107 -104z m954 -1729 c97 -96 289 -284 426 -419 258 -254 301 -307 338 -416 14 -42 15 -57 6 -63 -7 -4 -52 -15 -100 -24 -69 -14 -122 -16 -241 -13 -222 8 -299 35 -542 195 -166 110 -232 145 -336 182 -112 39 -181 52 -319 60 l-114 6 189 180 c104 98 259 248 344 332 85 84 159 153 164 153 5 0 88 -78 185 -173z m-576 -782 c115 -33 163 -58 338 -176 167 -113 260 -159 391 -194 199 -52 458 -55 622 -8 17 5 18 1 12 -45 -15 -117 -75 -231 -162 -313 -63 -58 -121 -91 -209 -121 -70 -23 -72 -23 -605 -23 -533 0 -535 0 -605 23 -127 42 -207 101 -278 206 -100 148 -129 368 -76 582 11 41 12 42 87 64 107 32 170 39 292 35 73 -3 132 -12 193 -30z" style="fill: rgb(47, 32, 147);"/>
  </g>
</svg>